<mxfile host="app.diagrams.net" modified="2021-06-15T13:56:36.459Z" agent="5.0 (Macintosh; Intel Mac OS X 10_14_5) AppleWebKit/537.36 (KHTML, like Gecko) Chrome/90.0.4430.212 Safari/537.36" etag="A4cbME19_GIGhu8rT619" version="14.4.9" type="github">
  <diagram id="kgpKYQtTHZ0yAKxKKP6v" name="里程兑换权益">
    <mxGraphModel dx="1156" dy="591" grid="0" gridSize="10" guides="1" tooltips="1" connect="1" arrows="1" fold="1" page="1" pageScale="1" pageWidth="850" pageHeight="1100" math="0" shadow="0">
      <root>
        <mxCell id="0" />
        <mxCell id="1" parent="0" />
        <mxCell id="FH1td1RMcZ_clcuvKmDr-2" value="发奖服务&lt;br&gt;tripbp" style="shape=umlLifeline;perimeter=lifelinePerimeter;whiteSpace=wrap;html=1;container=1;collapsible=0;recursiveResize=0;outlineConnect=0;" vertex="1" parent="1">
          <mxGeometry x="179" y="96" width="100" height="1003" as="geometry" />
        </mxCell>
        <mxCell id="FH1td1RMcZ_clcuvKmDr-3" value="" style="html=1;points=[];perimeter=orthogonalPerimeter;" vertex="1" parent="FH1td1RMcZ_clcuvKmDr-2">
          <mxGeometry x="45" y="73" width="10" height="680" as="geometry" />
        </mxCell>
        <mxCell id="FH1td1RMcZ_clcuvKmDr-4" value="回退扣减里程成功" style="html=1;verticalAlign=bottom;endArrow=open;dashed=1;endSize=8;" edge="1" parent="FH1td1RMcZ_clcuvKmDr-2">
          <mxGeometry relative="1" as="geometry">
            <mxPoint x="229.5" y="566" as="sourcePoint" />
            <mxPoint x="55" y="566" as="targetPoint" />
          </mxGeometry>
        </mxCell>
        <mxCell id="FH1td1RMcZ_clcuvKmDr-5" value="" style="html=1;points=[];perimeter=orthogonalPerimeter;" vertex="1" parent="FH1td1RMcZ_clcuvKmDr-2">
          <mxGeometry x="55" y="629" width="10" height="40" as="geometry" />
        </mxCell>
        <mxCell id="FH1td1RMcZ_clcuvKmDr-6" value="重试回退扣减里程" style="edgeStyle=orthogonalEdgeStyle;html=1;align=left;spacingLeft=2;endArrow=block;rounded=0;entryX=1;entryY=0;" edge="1" parent="FH1td1RMcZ_clcuvKmDr-2">
          <mxGeometry x="0.2" y="10" relative="1" as="geometry">
            <mxPoint x="54" y="608" as="sourcePoint" />
            <Array as="points">
              <mxPoint x="79" y="608" />
            </Array>
            <mxPoint x="59" y="628" as="targetPoint" />
            <mxPoint as="offset" />
          </mxGeometry>
        </mxCell>
        <mxCell id="FH1td1RMcZ_clcuvKmDr-7" value="" style="html=1;points=[];perimeter=orthogonalPerimeter;" vertex="1" parent="FH1td1RMcZ_clcuvKmDr-2">
          <mxGeometry x="45" y="756" width="10" height="40" as="geometry" />
        </mxCell>
        <mxCell id="FH1td1RMcZ_clcuvKmDr-8" value="重试发放权益（同步转异步）" style="edgeStyle=orthogonalEdgeStyle;html=1;align=left;spacingLeft=2;endArrow=block;rounded=0;entryX=1;entryY=0;" edge="1" parent="FH1td1RMcZ_clcuvKmDr-2" target="FH1td1RMcZ_clcuvKmDr-7">
          <mxGeometry x="-0.0769" y="9" relative="1" as="geometry">
            <mxPoint x="58" y="735" as="sourcePoint" />
            <Array as="points">
              <mxPoint x="83" y="735" />
            </Array>
            <mxPoint as="offset" />
          </mxGeometry>
        </mxCell>
        <mxCell id="oEU1MkFUp87RmnOmF4eI-3" value="发放权益 同上" style="html=1;verticalAlign=bottom;endArrow=block;" edge="1" parent="FH1td1RMcZ_clcuvKmDr-2" target="FH1td1RMcZ_clcuvKmDr-14">
          <mxGeometry width="80" relative="1" as="geometry">
            <mxPoint x="58" y="792" as="sourcePoint" />
            <mxPoint x="138" y="792" as="targetPoint" />
          </mxGeometry>
        </mxCell>
        <mxCell id="oEU1MkFUp87RmnOmF4eI-4" value="更新权益资产状态，调用权益状态更新TOP接口&lt;br&gt;（&lt;span style=&quot;background-color: rgb(213 , 232 , 212)&quot;&gt;&lt;span class=&quot;ne-text&quot;&gt;alitrip.partner.right.&lt;/span&gt;&lt;span class=&quot;ne-text&quot;&gt;status.&lt;/span&gt;&lt;span class=&quot;ne-text&quot;&gt;update&lt;/span&gt;&lt;/span&gt;）" style="html=1;verticalAlign=bottom;endArrow=open;dashed=1;endSize=8;" edge="1" parent="FH1td1RMcZ_clcuvKmDr-2" source="FH1td1RMcZ_clcuvKmDr-19">
          <mxGeometry relative="1" as="geometry">
            <mxPoint x="723.5" y="863" as="sourcePoint" />
            <mxPoint x="389.5" y="863" as="targetPoint" />
          </mxGeometry>
        </mxCell>
        <mxCell id="FH1td1RMcZ_clcuvKmDr-9" value="会员" style="shape=umlLifeline;participant=umlEntity;perimeter=lifelinePerimeter;whiteSpace=wrap;html=1;container=1;collapsible=0;recursiveResize=0;verticalAlign=top;spacingTop=36;outlineConnect=0;" vertex="1" parent="1">
          <mxGeometry x="49" y="96" width="40" height="999" as="geometry" />
        </mxCell>
        <mxCell id="FH1td1RMcZ_clcuvKmDr-10" value="兑换" style="html=1;verticalAlign=bottom;endArrow=block;" edge="1" parent="FH1td1RMcZ_clcuvKmDr-9">
          <mxGeometry width="80" relative="1" as="geometry">
            <mxPoint x="20" y="74" as="sourcePoint" />
            <mxPoint x="179.5" y="74" as="targetPoint" />
          </mxGeometry>
        </mxCell>
        <mxCell id="FH1td1RMcZ_clcuvKmDr-11" value="返回发放成功" style="html=1;verticalAlign=bottom;endArrow=open;dashed=1;endSize=8;" edge="1" parent="FH1td1RMcZ_clcuvKmDr-9">
          <mxGeometry relative="1" as="geometry">
            <mxPoint x="171" y="416" as="sourcePoint" />
            <mxPoint x="20" y="416" as="targetPoint" />
          </mxGeometry>
        </mxCell>
        <mxCell id="FH1td1RMcZ_clcuvKmDr-12" value="里程服务 fliggypoint" style="shape=umlLifeline;perimeter=lifelinePerimeter;whiteSpace=wrap;html=1;container=1;collapsible=0;recursiveResize=0;outlineConnect=0;" vertex="1" parent="1">
          <mxGeometry x="359" y="96" width="100" height="998" as="geometry" />
        </mxCell>
        <mxCell id="FH1td1RMcZ_clcuvKmDr-13" value="扣减里程" style="html=1;verticalAlign=bottom;endArrow=block;" edge="1" parent="1">
          <mxGeometry width="80" relative="1" as="geometry">
            <mxPoint x="237" y="210" as="sourcePoint" />
            <mxPoint x="408.5" y="210" as="targetPoint" />
          </mxGeometry>
        </mxCell>
        <mxCell id="FH1td1RMcZ_clcuvKmDr-14" value="权益服务 fliggyright" style="shape=umlLifeline;perimeter=lifelinePerimeter;whiteSpace=wrap;html=1;container=1;collapsible=0;recursiveResize=0;outlineConnect=0;" vertex="1" parent="1">
          <mxGeometry x="519" y="96" width="100" height="994" as="geometry" />
        </mxCell>
        <mxCell id="FH1td1RMcZ_clcuvKmDr-16" value="" style="html=1;points=[];perimeter=orthogonalPerimeter;" vertex="1" parent="FH1td1RMcZ_clcuvKmDr-14">
          <mxGeometry x="46" y="343" width="10" height="49" as="geometry" />
        </mxCell>
        <mxCell id="FH1td1RMcZ_clcuvKmDr-17" value="记录权益信息" style="edgeStyle=orthogonalEdgeStyle;html=1;align=left;spacingLeft=2;endArrow=block;rounded=0;entryX=1;entryY=0;" edge="1" parent="FH1td1RMcZ_clcuvKmDr-14" target="FH1td1RMcZ_clcuvKmDr-16">
          <mxGeometry relative="1" as="geometry">
            <mxPoint x="55" y="323" as="sourcePoint" />
            <Array as="points">
              <mxPoint x="80" y="323" />
            </Array>
          </mxGeometry>
        </mxCell>
        <mxCell id="oEU1MkFUp87RmnOmF4eI-1" value="" style="html=1;points=[];perimeter=orthogonalPerimeter;" vertex="1" parent="FH1td1RMcZ_clcuvKmDr-14">
          <mxGeometry x="46.5" y="158" width="10" height="234" as="geometry" />
        </mxCell>
        <mxCell id="oEU1MkFUp87RmnOmF4eI-2" value="发放权益HSF接口&lt;br&gt;（&lt;span style=&quot;background-color: rgb(199 , 237 , 204) ; font-family: &amp;#34;menlo&amp;#34; ; font-size: 9.8pt&quot;&gt;RightWriteService.&lt;/span&gt;&lt;span style=&quot;background-color: rgb(199 , 237 , 204) ; font-family: &amp;#34;menlo&amp;#34; ; font-size: 9.8pt&quot;&gt;sendRight&lt;/span&gt;）" style="edgeStyle=orthogonalEdgeStyle;html=1;align=left;spacingLeft=2;endArrow=block;rounded=0;entryX=1;entryY=0;" edge="1" target="oEU1MkFUp87RmnOmF4eI-1" parent="FH1td1RMcZ_clcuvKmDr-14">
          <mxGeometry relative="1" as="geometry">
            <mxPoint x="51.5" y="137.99800000000005" as="sourcePoint" />
            <Array as="points">
              <mxPoint x="81.5" y="137.99800000000005" />
            </Array>
          </mxGeometry>
        </mxCell>
        <mxCell id="oEU1MkFUp87RmnOmF4eI-7" value="&lt;div class=&quot;lake-content&quot;&gt;&lt;span class=&quot;ne-text&quot;&gt;取消商家权益奇门接口&lt;/span&gt;&lt;/div&gt;（业务未使用，仅排查问题ateye调用）&lt;div class=&quot;lake-content&quot;&gt;&lt;span class=&quot;ne-text&quot;&gt;（&lt;/span&gt;&lt;span style=&quot;background-color: rgb(213 , 232 , 212)&quot;&gt;qimen.alitrip.partner.right.cancel&lt;/span&gt;）&lt;/div&gt;" style="html=1;verticalAlign=bottom;endArrow=block;" edge="1" parent="FH1td1RMcZ_clcuvKmDr-14" target="FH1td1RMcZ_clcuvKmDr-19">
          <mxGeometry width="80" relative="1" as="geometry">
            <mxPoint x="55" y="974" as="sourcePoint" />
            <mxPoint x="383.5" y="974" as="targetPoint" />
          </mxGeometry>
        </mxCell>
        <mxCell id="FH1td1RMcZ_clcuvKmDr-18" value="发放权益" style="html=1;verticalAlign=bottom;endArrow=block;exitX=1;exitY=0.319;exitDx=0;exitDy=0;exitPerimeter=0;" edge="1" parent="1" target="FH1td1RMcZ_clcuvKmDr-14">
          <mxGeometry width="80" relative="1" as="geometry">
            <mxPoint x="236" y="236.99800000000005" as="sourcePoint" />
            <mxPoint x="570.5" y="236.99800000000005" as="targetPoint" />
          </mxGeometry>
        </mxCell>
        <mxCell id="FH1td1RMcZ_clcuvKmDr-19" value="商家系统" style="shape=umlLifeline;perimeter=lifelinePerimeter;whiteSpace=wrap;html=1;container=1;collapsible=0;recursiveResize=0;outlineConnect=0;" vertex="1" parent="1">
          <mxGeometry x="892" y="92" width="100" height="1002" as="geometry" />
        </mxCell>
        <mxCell id="FH1td1RMcZ_clcuvKmDr-20" value="发放权益奇门接口&lt;br&gt;(&lt;span style=&quot;color: rgb(51 , 51 , 51) ; font-family: &amp;#34;tahoma&amp;#34; , &amp;#34;microsoft yahei&amp;#34; , &amp;#34;simsun&amp;#34; , sans-serif ; font-size: 12px ; background-color: rgb(213 , 232 , 212)&quot;&gt;qimen.alitrip.partner.right.send&lt;/span&gt;)" style="html=1;verticalAlign=bottom;endArrow=block;" edge="1" parent="1" target="FH1td1RMcZ_clcuvKmDr-19">
          <mxGeometry x="0.0471" y="10" width="80" relative="1" as="geometry">
            <mxPoint x="583" y="314" as="sourcePoint" />
            <mxPoint x="753" y="314" as="targetPoint" />
            <mxPoint as="offset" />
          </mxGeometry>
        </mxCell>
        <mxCell id="FH1td1RMcZ_clcuvKmDr-21" value="1.发放成功" style="html=1;verticalAlign=bottom;endArrow=open;dashed=1;endSize=8;" edge="1" parent="1">
          <mxGeometry relative="1" as="geometry">
            <mxPoint x="569" y="489" as="sourcePoint" />
            <mxPoint x="238" y="489" as="targetPoint" />
          </mxGeometry>
        </mxCell>
        <mxCell id="FH1td1RMcZ_clcuvKmDr-22" value="2.发放失败" style="html=1;verticalAlign=bottom;endArrow=open;dashed=1;endSize=8;" edge="1" parent="1" source="FH1td1RMcZ_clcuvKmDr-19">
          <mxGeometry relative="1" as="geometry">
            <mxPoint x="738.5" y="539" as="sourcePoint" />
            <mxPoint x="569" y="539" as="targetPoint" />
          </mxGeometry>
        </mxCell>
        <mxCell id="FH1td1RMcZ_clcuvKmDr-23" value="3.发放超时" style="html=1;verticalAlign=bottom;endArrow=open;dashed=1;endSize=8;" edge="1" parent="1" source="FH1td1RMcZ_clcuvKmDr-19">
          <mxGeometry relative="1" as="geometry">
            <mxPoint x="741.5" y="787" as="sourcePoint" />
            <mxPoint x="572" y="787" as="targetPoint" />
          </mxGeometry>
        </mxCell>
        <mxCell id="FH1td1RMcZ_clcuvKmDr-24" value="2.发放失败" style="html=1;verticalAlign=bottom;endArrow=open;dashed=1;endSize=8;" edge="1" parent="1">
          <mxGeometry relative="1" as="geometry">
            <mxPoint x="566.5" y="559" as="sourcePoint" />
            <mxPoint x="234" y="559" as="targetPoint" />
          </mxGeometry>
        </mxCell>
        <mxCell id="FH1td1RMcZ_clcuvKmDr-25" value="回退扣减里程" style="html=1;verticalAlign=bottom;endArrow=block;" edge="1" parent="1">
          <mxGeometry width="80" relative="1" as="geometry">
            <mxPoint x="233" y="631" as="sourcePoint" />
            <mxPoint x="408.5" y="631" as="targetPoint" />
          </mxGeometry>
        </mxCell>
        <mxCell id="FH1td1RMcZ_clcuvKmDr-26" value="返回发放失败" style="html=1;verticalAlign=bottom;endArrow=open;dashed=1;endSize=8;" edge="1" parent="1">
          <mxGeometry relative="1" as="geometry">
            <mxPoint x="221" y="677" as="sourcePoint" />
            <mxPoint x="70" y="677" as="targetPoint" />
          </mxGeometry>
        </mxCell>
        <mxCell id="FH1td1RMcZ_clcuvKmDr-27" value="回退扣减里程失败" style="html=1;verticalAlign=bottom;endArrow=open;dashed=1;endSize=8;" edge="1" parent="1">
          <mxGeometry relative="1" as="geometry">
            <mxPoint x="409.5" y="694" as="sourcePoint" />
            <mxPoint x="235" y="694" as="targetPoint" />
          </mxGeometry>
        </mxCell>
        <mxCell id="FH1td1RMcZ_clcuvKmDr-28" value="3.发放超时" style="html=1;verticalAlign=bottom;endArrow=open;dashed=1;endSize=8;" edge="1" parent="1">
          <mxGeometry relative="1" as="geometry">
            <mxPoint x="567.5" y="813" as="sourcePoint" />
            <mxPoint x="235" y="813" as="targetPoint" />
          </mxGeometry>
        </mxCell>
        <mxCell id="FH1td1RMcZ_clcuvKmDr-29" value="返回发放中" style="html=1;verticalAlign=bottom;endArrow=open;dashed=1;endSize=8;" edge="1" parent="1">
          <mxGeometry relative="1" as="geometry">
            <mxPoint x="223" y="827" as="sourcePoint" />
            <mxPoint x="72" y="827" as="targetPoint" />
          </mxGeometry>
        </mxCell>
        <mxCell id="FH1td1RMcZ_clcuvKmDr-15" value="1.发放成功" style="html=1;verticalAlign=bottom;endArrow=open;dashed=1;endSize=8;" edge="1" parent="1" source="FH1td1RMcZ_clcuvKmDr-19">
          <mxGeometry relative="1" as="geometry">
            <mxPoint x="747.5" y="346" as="sourcePoint" />
            <mxPoint x="578" y="346" as="targetPoint" />
          </mxGeometry>
        </mxCell>
        <mxCell id="oEU1MkFUp87RmnOmF4eI-5" value="&lt;div class=&quot;lake-content&quot;&gt;&lt;span class=&quot;ne-text&quot;&gt;查询商家权益信息奇门接口（业务未使用，仅排查问题ateye调用）&lt;/span&gt;&lt;/div&gt;&lt;div class=&quot;lake-content&quot;&gt;&lt;span class=&quot;ne-text&quot;&gt;（&lt;/span&gt;&lt;span style=&quot;background-color: rgb(213 , 232 , 212)&quot;&gt;qimen.alitrip.partner.right.query&lt;/span&gt;）&lt;/div&gt;" style="html=1;verticalAlign=bottom;endArrow=block;exitX=0.54;exitY=0.964;exitDx=0;exitDy=0;exitPerimeter=0;" edge="1" parent="1" target="FH1td1RMcZ_clcuvKmDr-19">
          <mxGeometry width="80" relative="1" as="geometry">
            <mxPoint x="573" y="1015.2159999999999" as="sourcePoint" />
            <mxPoint x="902.5" y="1015.2159999999999" as="targetPoint" />
          </mxGeometry>
        </mxCell>
      </root>
    </mxGraphModel>
  </diagram>
</mxfile>
